RobotoSerifText-RegularCond.ufo
<glyph name="B" format="2">
  <advance width="559"/>
  <unicode hex="0042"/>
  <outline>
    <contour>
      <point x="292" y="710" type="curve" smooth="yes"/>
      <point x="35" y="710" type="line"/>
      <point x="35" y="666" type="line"/>
      <point x="44" y="666" type="line" smooth="yes"/>
      <point x="83" y="666"/>
      <point x="111" y="659"/>
      <point x="111" y="630" type="curve" smooth="yes"/>
      <point x="111" y="80" type="line" smooth="yes"/>
      <point x="111" y="51"/>
      <point x="83" y="44"/>
      <point x="44" y="44" type="curve" smooth="yes"/>
      <point x="35" y="44" type="line"/>
      <point x="35" y="0" type="line"/>
      <point x="300" y="0" type="line" smooth="yes"/>
      <point x="439" y="0"/>
      <point x="517" y="75"/>
      <point x="517" y="197" type="curve" smooth="yes"/>
      <point x="517" y="309"/>
      <point x="438" y="383"/>
      <point x="299" y="386" type="curve"/>
      <point x="353" y="354" type="line"/>
      <point x="353" y="396" type="line"/>
      <point x="292" y="362" type="line"/>
      <point x="421" y="366"/>
      <point x="492" y="433"/>
      <point x="492" y="532" type="curve" smooth="yes"/>
      <point x="492" y="641"/>
      <point x="420" y="710"/>
    </contour>
    <contour>
      <point x="183" y="397" type="line"/>
      <point x="183" y="347" type="line"/>
      <point x="292" y="347" type="line" smooth="yes"/>
      <point x="386" y="347"/>
      <point x="424" y="285"/>
      <point x="424" y="198" type="curve" smooth="yes"/>
      <point x="424" y="104"/>
      <point x="383" y="52"/>
      <point x="293" y="52" type="curve" smooth="yes"/>
      <point x="201" y="52" type="line"/>
      <point x="201" y="658" type="line"/>
      <point x="286" y="658" type="line" smooth="yes"/>
      <point x="366" y="658"/>
      <point x="401" y="612"/>
      <point x="401" y="531" type="curve" smooth="yes"/>
      <point x="401" y="451"/>
      <point x="370" y="397"/>
      <point x="286" y="397" type="curve" smooth="yes"/>
    </contour>
  </outline>
</glyph>
<glyph name="M" format="2">
  <advance width="788"/>
  <unicode hex="004D"/>
  <anchor x="382" y="0" name="bottom"/>
  <outline>
    <contour>
      <point x="35" y="0" type="line"/>
      <point x="235" y="0" type="line"/>
      <point x="235" y="44" type="line"/>
      <point x="232" y="44" type="line" smooth="yes"/>
      <point x="206" y="44"/>
      <point x="167" y="47"/>
      <point x="167" y="54" type="curve" smooth="yes"/>
      <point x="167" y="687" type="line"/>
      <point x="158" y="690" type="line"/>
      <point x="349" y="-2" type="line"/>
      <point x="404" y="-2" type="line"/>
      <point x="595" y="689" type="line"/>
      <point x="586" y="691" type="line"/>
      <point x="586" y="54" type="line" smooth="yes"/>
      <point x="586" y="47"/>
      <point x="555" y="44"/>
      <point x="525" y="44" type="curve" smooth="yes"/>
      <point x="518" y="44" type="line"/>
      <point x="518" y="0" type="line"/>
      <point x="753" y="0" type="line"/>
      <point x="753" y="44" type="line"/>
      <point x="743" y="44" type="line" smooth="yes"/>
      <point x="705" y="44"/>
      <point x="677" y="51"/>
      <point x="677" y="80" type="curve" smooth="yes"/>
      <point x="677" y="630" type="line" smooth="yes"/>
      <point x="677" y="659"/>
      <point x="705" y="666"/>
      <point x="743" y="666" type="curve" smooth="yes"/>
      <point x="753" y="666" type="line"/>
      <point x="753" y="710" type="line"/>
      <point x="546" y="710" type="line"/>
      <point x="385" y="82" type="line"/>
      <point x="403" y="79" type="line"/>
      <point x="246" y="710" type="line"/>
      <point x="35" y="710" type="line"/>
      <point x="35" y="666" type="line"/>
      <point x="44" y="666" type="line" smooth="yes"/>
      <point x="83" y="666"/>
      <point x="111" y="659"/>
      <point x="111" y="630" type="curve" smooth="yes"/>
      <point x="111" y="80" type="line" smooth="yes"/>
      <point x="111" y="51"/>
      <point x="83" y="44"/>
      <point x="44" y="44" type="curve"/>
      <point x="35" y="44" type="line"/>
    </contour>
  </outline>
</glyph>
<glyph name="O" format="2">
  <advance width="656"/>
  <unicode hex="004F"/>
  <anchor x="328" y="741" name="top"/>
  <anchor x="328" y="0" name="bottom"/>
  <outline>
    <contour>
      <point x="328" y="-10" type="curve" smooth="yes"/>
      <point x="493" y="-10"/>
      <point x="619" y="139"/>
      <point x="619" y="355" type="curve" smooth="yes"/>
      <point x="619" y="572"/>
      <point x="493" y="720"/>
      <point x="328" y="720" type="curve" smooth="yes"/>
      <point x="163" y="720"/>
      <point x="37" y="572"/>
      <point x="37" y="355" type="curve" smooth="yes"/>
      <point x="37" y="139"/>
      <point x="163" y="-10"/>
    </contour>
    <contour>
      <point x="328" y="44" type="curve" smooth="yes"/>
      <point x="215" y="44"/>
      <point x="134" y="164"/>
      <point x="134" y="355" type="curve" smooth="yes"/>
      <point x="134" y="546"/>
      <point x="214" y="666"/>
      <point x="328" y="666" type="curve" smooth="yes"/>
      <point x="441" y="666"/>
      <point x="523" y="546"/>
      <point x="523" y="355" type="curve" smooth="yes"/>
      <point x="523" y="164"/>
      <point x="441" y="44"/>
    </contour>
  </outline>
</glyph>
<glyph name="Z" format="2">
  <advance width="514"/>
  <unicode hex="005A"/>
  <anchor x="276" y="741" name="top"/>
  <anchor x="276" y="0" name="bottom"/>
  <outline>
    <contour>
      <point x="87" y="53" type="line"/>
      <point x="101" y="18" type="line"/>
      <point x="468" y="653" type="line"/>
      <point x="468" y="710" type="line"/>
      <point x="51" y="710" type="line"/>
      <point x="51" y="519" type="line"/>
      <point x="101" y="519" type="line"/>
      <point x="108" y="614" type="line" smooth="yes"/>
      <point x="110" y="650"/>
      <point x="140" y="657"/>
      <point x="208" y="657" type="curve" smooth="yes"/>
      <point x="411" y="657" type="line"/>
      <point x="394" y="681" type="line"/>
      <point x="37" y="60" type="line"/>
      <point x="37" y="0" type="line"/>
      <point x="474" y="0" type="line"/>
      <point x="474" y="208" type="line"/>
      <point x="422" y="208" type="line"/>
      <point x="414" y="96" type="line" smooth="yes"/>
      <point x="412" y="60"/>
      <point x="383" y="53"/>
      <point x="313" y="53" type="curve" smooth="yes"/>
    </contour>
  </outline>
</glyph>
<glyph name="d" format="2">
  <advance width="532"/>
  <unicode hex="0064"/>
  <anchor x="552" y="735" name="right"/>
  <anchor x="242" y="0" name="bottom"/>
  <outline>
    <contour>
      <point x="451" y="77" type="curve" smooth="yes"/>
      <point x="451" y="735" type="line"/>
      <point x="297" y="735" type="line"/>
      <point x="297" y="693" type="line"/>
      <point x="306" y="691" type="line" smooth="yes"/>
      <point x="346" y="682"/>
      <point x="365" y="675"/>
      <point x="365" y="646" type="curve" smooth="yes"/>
      <point x="365" y="119" type="line"/>
      <point x="372" y="116" type="line"/>
      <point x="372" y="0" type="line"/>
      <point x="516" y="0" type="line"/>
      <point x="516" y="41" type="line"/>
      <point x="515" y="41" type="line"/>
      <point x="477" y="41"/>
      <point x="451" y="48"/>
    </contour>
    <contour>
      <point x="233" y="518" type="curve" smooth="yes"/>
      <point x="116" y="518"/>
      <point x="36" y="409"/>
      <point x="36" y="250" type="curve" smooth="yes"/>
      <point x="36" y="94"/>
      <point x="113" y="-10"/>
      <point x="228" y="-10" type="curve" smooth="yes"/>
      <point x="297" y="-10"/>
      <point x="339" y="30"/>
      <point x="382" y="109" type="curve"/>
      <point x="382" y="187" type="line"/>
      <point x="344" y="94"/>
      <point x="302" y="42"/>
      <point x="239" y="42" type="curve" smooth="yes"/>
      <point x="166" y="42"/>
      <point x="126" y="122"/>
      <point x="126" y="250" type="curve" smooth="yes"/>
      <point x="126" y="381"/>
      <point x="166" y="466"/>
      <point x="242" y="466" type="curve" smooth="yes"/>
      <point x="303" y="466"/>
      <point x="346" y="420"/>
      <point x="382" y="324" type="curve"/>
      <point x="382" y="408" type="line"/>
      <point x="342" y="483"/>
      <point x="300" y="518"/>
    </contour>
  </outline>
</glyph>
<glyph name="o" format="2">
  <advance width="511"/>
  <unicode hex="006F"/>
  <anchor x="255" y="508" name="top"/>
  <anchor x="360" y="0" name="right"/>
  <anchor x="255" y="0" name="bottom"/>
  <outline>
    <contour>
      <point x="255" y="-10" type="curve"/>
      <point x="384" y="-10"/>
      <point x="475" y="97"/>
      <point x="475" y="254" type="curve" smooth="yes"/>
      <point x="475" y="409"/>
      <point x="384" y="518"/>
      <point x="255" y="518" type="curve" smooth="yes"/>
      <point x="127" y="518"/>
      <point x="36" y="410"/>
      <point x="36" y="254" type="curve" smooth="yes"/>
      <point x="36" y="97"/>
      <point x="127" y="-10"/>
    </contour>
    <contour>
      <point x="255" y="42" type="curve"/>
      <point x="176" y="42"/>
      <point x="126" y="126"/>
      <point x="126" y="254" type="curve" smooth="yes"/>
      <point x="126" y="380"/>
      <point x="176" y="466"/>
      <point x="255" y="466" type="curve" smooth="yes"/>
      <point x="335" y="466"/>
      <point x="384" y="380"/>
      <point x="384" y="254" type="curve" smooth="yes"/>
      <point x="384" y="125"/>
      <point x="335" y="42"/>
    </contour>
  </outline>
</glyph>
<glyph name="u" format="2">
  <advance width="519"/>
  <unicode hex="0075"/>
  <anchor x="239" y="508" name="top"/>
  <anchor x="404" y="0" name="right"/>
  <anchor x="236" y="0" name="bottom"/>
  <outline>
    <contour>
      <point x="169" y="508" type="line"/>
      <point x="16" y="508" type="line"/>
      <point x="16" y="466" type="line"/>
      <point x="25" y="464" type="line" smooth="yes"/>
      <point x="65" y="458"/>
      <point x="82" y="450"/>
      <point x="82" y="421" type="curve" smooth="yes"/>
      <point x="82" y="151" type="line" smooth="yes"/>
      <point x="82" y="40"/>
      <point x="137" y="-10"/>
      <point x="215" y="-10" type="curve" smooth="yes"/>
      <point x="279" y="-10"/>
      <point x="324" y="25"/>
      <point x="365" y="97" type="curve"/>
      <point x="365" y="161" type="line"/>
      <point x="328" y="87"/>
      <point x="286" y="47"/>
      <point x="235" y="47" type="curve" smooth="yes"/>
      <point x="185" y="47"/>
      <point x="169" y="83"/>
      <point x="169" y="163" type="curve"/>
    </contour>
    <contour>
      <point x="437" y="508" type="line"/>
      <point x="274" y="508" type="line"/>
      <point x="274" y="466" type="line"/>
      <point x="291" y="463" type="line"/>
      <point x="331" y="458"/>
      <point x="350" y="450"/>
      <point x="350" y="421" type="curve" smooth="yes"/>
      <point x="350" y="117" type="line"/>
      <point x="358" y="107" type="line"/>
      <point x="358" y="0" type="line"/>
      <point x="503" y="0" type="line"/>
      <point x="503" y="41" type="line"/>
      <point x="501" y="41" type="line" smooth="yes"/>
      <point x="463" y="41"/>
      <point x="437" y="48"/>
      <point x="437" y="77" type="curve" smooth="yes"/>
    </contour>
  </outline>
</glyph>
<glyph name="x" format="2">
  <advance width="477"/>
  <unicode hex="0078"/>
  <outline>
    <contour>
      <point x="471" y="0" type="line"/>
      <point x="471" y="42" type="line"/>
      <point x="470" y="42" type="line"/>
      <point x="439" y="42"/>
      <point x="426" y="51"/>
      <point x="409" y="76" type="curve" smooth="yes"/>
      <point x="276" y="276" type="line"/>
      <point x="273" y="280" type="line"/>
      <point x="157" y="458" type="line"/>
      <point x="157" y="464"/>
      <point x="193" y="466"/>
      <point x="225" y="466" type="curve" smooth="yes"/>
      <point x="227" y="466" type="line"/>
      <point x="227" y="508" type="line"/>
      <point x="14" y="508" type="line"/>
      <point x="14" y="465" type="line"/>
      <point x="15" y="465" type="line"/>
      <point x="45" y="465"/>
      <point x="58" y="460"/>
      <point x="72" y="439" type="curve" smooth="yes"/>
      <point x="205" y="238" type="line"/>
      <point x="208" y="235" type="line"/>
      <point x="328" y="51" type="line"/>
      <point x="328" y="44"/>
      <point x="290" y="42"/>
      <point x="257" y="42" type="curve" smooth="yes"/>
      <point x="256" y="42" type="line"/>
      <point x="256" y="0" type="line"/>
    </contour>
    <contour>
      <point x="5" y="0" type="line"/>
      <point x="186" y="0" type="line"/>
      <point x="186" y="42" type="line"/>
      <point x="185" y="42" type="line" smooth="yes"/>
      <point x="154" y="42"/>
      <point x="121" y="50"/>
      <point x="121" y="62" type="curve"/>
      <point x="236" y="236" type="line"/>
      <point x="198" y="267" type="line"/>
      <point x="70" y="80" type="line" smooth="yes"/>
      <point x="51" y="53"/>
      <point x="29" y="42"/>
      <point x="6" y="42" type="curve"/>
      <point x="5" y="42" type="line"/>
    </contour>
    <contour>
      <point x="274" y="246" type="line"/>
      <point x="393" y="421" type="line" smooth="yes"/>
      <point x="416" y="455"/>
      <point x="434" y="466"/>
      <point x="461" y="466" type="curve"/>
      <point x="462" y="466" type="line"/>
      <point x="462" y="508" type="line"/>
      <point x="283" y="508" type="line"/>
      <point x="283" y="466" type="line"/>
      <point x="285" y="466" type="line" smooth="yes"/>
      <point x="314" y="466"/>
      <point x="348" y="458"/>
      <point x="348" y="446" type="curve"/>
      <point x="238" y="281" type="line"/>
    </contour>
  </outline>
</glyph>
<glyph name="germandbls" format="2">
  <advance width="521"/>
  <unicode hex="00DF"/>
  <outline>
    <contour>
      <point x="28" y="508" type="line"/>
      <point x="28" y="456" type="line"/>
      <point x="143" y="456" type="line"/>
      <point x="143" y="508" type="line"/>
    </contour>
    <contour>
      <point x="260" y="416" type="line"/>
      <point x="353" y="427"/>
      <point x="441" y="506"/>
      <point x="441" y="605" type="curve" smooth="yes"/>
      <point x="441" y="690"/>
      <point x="381" y="752"/>
      <point x="281" y="752" type="curve" smooth="yes"/>
      <point x="192" y="752"/>
      <point x="111" y="709"/>
      <point x="111" y="574" type="curve" smooth="yes"/>
      <point x="111" y="77" type="line" smooth="yes"/>
      <point x="111" y="48"/>
      <point x="85" y="41"/>
      <point x="42" y="41" type="curve" smooth="yes"/>
      <point x="33" y="41" type="line"/>
      <point x="33" y="0" type="line"/>
      <point x="198" y="0" type="line"/>
      <point x="198" y="574" type="line" smooth="yes"/>
      <point x="198" y="676"/>
      <point x="233" y="701"/>
      <point x="280" y="701" type="curve" smooth="yes"/>
      <point x="328" y="701"/>
      <point x="357" y="664"/>
      <point x="357" y="596" type="curve" smooth="yes"/>
      <point x="357" y="509"/>
      <point x="310" y="457"/>
      <point x="243" y="446" type="curve"/>
      <point x="243" y="399" type="line"/>
      <point x="244" y="399" type="line" smooth="yes"/>
      <point x="331" y="399"/>
      <point x="399" y="308"/>
      <point x="399" y="186" type="curve" smooth="yes"/>
      <point x="399" y="90"/>
      <point x="366" y="42"/>
      <point x="314" y="42" type="curve" smooth="yes"/>
      <point x="283" y="42"/>
      <point x="249" y="63"/>
      <point x="243" y="65" type="curve"/>
      <point x="243" y="11" type="line"/>
      <point x="254" y="2"/>
      <point x="289" y="-10"/>
      <point x="325" y="-10" type="curve" smooth="yes"/>
      <point x="418" y="-10"/>
      <point x="490" y="57"/>
      <point x="490" y="186" type="curve" smooth="yes"/>
      <point x="490" y="308"/>
      <point x="420" y="405"/>
      <point x="293" y="433" type="curve"/>
      <point x="307" y="416" type="line"/>
      <point x="307" y="440" type="line"/>
    </contour>
  </outline>
</glyph>
<glyph name="Hbar" format="2">
  <advance width="685"/>
  <unicode hex="0126"/>
  <outline>
    <contour>
      <point x="35" y="500" type="line"/>
      <point x="651" y="500" type="line"/>
      <point x="651" y="548" type="line"/>
      <point x="35" y="548" type="line"/>
    </contour>
    <contour>
      <point x="164" y="392" type="line"/>
      <point x="164" y="340" type="line"/>
      <point x="518" y="340" type="line"/>
      <point x="518" y="392" type="line"/>
    </contour>
    <contour>
      <point x="35" y="0" type="line"/>
      <point x="277" y="0" type="line"/>
      <point x="277" y="44" type="line"/>
      <point x="270" y="44" type="line" smooth="yes"/>
      <point x="240" y="44"/>
      <point x="201" y="47"/>
      <point x="201" y="54" type="curve" smooth="yes"/>
      <point x="201" y="656" type="line" smooth="yes"/>
      <point x="201" y="663"/>
      <point x="240" y="666"/>
      <point x="270" y="666" type="curve" smooth="yes"/>
      <point x="277" y="666" type="line"/>
      <point x="277" y="710" type="line"/>
      <point x="35" y="710" type="line"/>
      <point x="35" y="666" type="line"/>
      <point x="44" y="666" type="line" smooth="yes"/>
      <point x="83" y="666"/>
      <point x="111" y="659"/>
      <point x="111" y="630" type="curve" smooth="yes"/>
      <point x="111" y="80" type="line" smooth="yes"/>
      <point x="111" y="51"/>
      <point x="83" y="44"/>
      <point x="44" y="44" type="curve" smooth="yes"/>
      <point x="35" y="44" type="line"/>
    </contour>
    <contour>
      <point x="409" y="0" type="line"/>
      <point x="651" y="0" type="line"/>
      <point x="651" y="44" type="line"/>
      <point x="642" y="44" type="line" smooth="yes"/>
      <point x="604" y="44"/>
      <point x="575" y="51"/>
      <point x="575" y="80" type="curve" smooth="yes"/>
      <point x="575" y="630" type="line" smooth="yes"/>
      <point x="575" y="659"/>
      <point x="604" y="666"/>
      <point x="642" y="666" type="curve" smooth="yes"/>
      <point x="651" y="666" type="line"/>
      <point x="651" y="710" type="line"/>
      <point x="409" y="710" type="line"/>
      <point x="409" y="666" type="line"/>
      <point x="416" y="666" type="line" smooth="yes"/>
      <point x="446" y="666"/>
      <point x="484" y="663"/>
      <point x="484" y="656" type="curve" smooth="yes"/>
      <point x="484" y="54" type="line" smooth="yes"/>
      <point x="484" y="47"/>
      <point x="446" y="44"/>
      <point x="416" y="44" type="curve" smooth="yes"/>
      <point x="409" y="44" type="line"/>
    </contour>
  </outline>
</glyph>
<glyph name="OE" format="2">
  <advance width="841"/>
  <unicode hex="0152"/>
  <outline>
    <contour>
      <point x="349" y="52" type="line" smooth="yes"/>
      <point x="216" y="52"/>
      <point x="132" y="161"/>
      <point x="132" y="353" type="curve" smooth="yes"/>
      <point x="132" y="545"/>
      <point x="216" y="658"/>
      <point x="349" y="658" type="curve" smooth="yes"/>
      <point x="430" y="658" type="line"/>
      <point x="430" y="52" type="line"/>
    </contour>
    <contour>
      <point x="495" y="388" type="curve"/>
      <point x="495" y="339" type="line"/>
      <point x="560" y="336"/>
      <point x="626" y="334"/>
      <point x="692" y="332" type="curve"/>
      <point x="692" y="395" type="line"/>
      <point x="626" y="392"/>
      <point x="560" y="390"/>
    </contour>
    <contour>
      <point x="795" y="0" type="line"/>
      <point x="795" y="211" type="line"/>
      <point x="745" y="211" type="line"/>
      <point x="738" y="96" type="line" smooth="yes"/>
      <point x="735" y="60"/>
      <point x="706" y="53"/>
      <point x="636" y="53" type="curve" smooth="yes"/>
      <point x="519" y="53" type="line"/>
      <point x="519" y="657" type="line"/>
      <point x="614" y="657" type="line" smooth="yes"/>
      <point x="682" y="657"/>
      <point x="711" y="650"/>
      <point x="715" y="614" type="curve" smooth="yes"/>
      <point x="722" y="524" type="line"/>
      <point x="770" y="524" type="line"/>
      <point x="770" y="710" type="line"/>
      <point x="348" y="710" type="line" smooth="yes"/>
      <point x="164" y="710"/>
      <point x="37" y="569"/>
      <point x="37" y="353" type="curve" smooth="yes"/>
      <point x="37" y="136"/>
      <point x="164" y="0"/>
      <point x="348" y="0" type="curve" smooth="yes"/>
    </contour>
  </outline>
</glyph>
<glyph name="Uogonek" format="2">
  <advance width="660"/>
  <unicode hex="0172"/>
  <outline>
    <contour>
      <point x="386" y="-235" type="curve" smooth="yes"/>
      <point x="432" y="-235"/>
      <point x="455" y="-216"/>
      <point x="477" y="-188" type="curve"/>
      <point x="452" y="-157" type="line"/>
      <point x="441" y="-171"/>
      <point x="427" y="-188"/>
      <point x="408" y="-188" type="curve" smooth="yes"/>
      <point x="389" y="-188"/>
      <point x="375" y="-171"/>
      <point x="375" y="-137" type="curve" smooth="yes"/>
      <point x="375" y="-61"/>
      <point x="457" y="9"/>
      <point x="491" y="55" type="curve" smooth="yes"/>
      <point x="529" y="100"/>
      <point x="551" y="171"/>
      <point x="551" y="271" type="curve" smooth="yes"/>
      <point x="551" y="620" type="line" smooth="yes"/>
      <point x="551" y="654"/>
      <point x="579" y="666"/>
      <point x="617" y="666" type="curve" smooth="yes"/>
      <point x="627" y="666" type="line"/>
      <point x="627" y="710" type="line"/>
      <point x="419" y="710" type="line"/>
      <point x="419" y="666" type="line"/>
      <point x="426" y="666" type="line" smooth="yes"/>
      <point x="456" y="666"/>
      <point x="495" y="658"/>
      <point x="495" y="644" type="curve" smooth="yes"/>
      <point x="495" y="271" type="line" smooth="yes"/>
      <point x="495" y="107"/>
      <point x="433" y="52"/>
      <point x="348" y="52" type="curve" smooth="yes"/>
      <point x="260" y="52"/>
      <point x="199" y="106"/>
      <point x="199" y="271" type="curve" smooth="yes"/>
      <point x="199" y="656" type="line" smooth="yes"/>
      <point x="199" y="663"/>
      <point x="238" y="666"/>
      <point x="268" y="666" type="curve" smooth="yes"/>
      <point x="275" y="666" type="line"/>
      <point x="275" y="710" type="line"/>
      <point x="34" y="710" type="line"/>
      <point x="34" y="666" type="line"/>
      <point x="43" y="666" type="line" smooth="yes"/>
      <point x="81" y="666"/>
      <point x="109" y="659"/>
      <point x="109" y="630" type="curve" smooth="yes"/>
      <point x="109" y="271" type="line" smooth="yes"/>
      <point x="109" y="70"/>
      <point x="204" y="-10"/>
      <point x="335" y="-10" type="curve" smooth="yes"/>
      <point x="373" y="-10"/>
      <point x="409" y="-3"/>
      <point x="439" y="15" type="curve"/>
      <point x="439" y="40" type="line"/>
      <point x="357" y="-24"/>
      <point x="294" y="-76"/>
      <point x="294" y="-144" type="curve" smooth="yes"/>
      <point x="294" y="-201"/>
      <point x="332" y="-235"/>
    </contour>
  </outline>
</glyph>
<glyph name="Schwa" format="2">
  <advance width="588"/>
  <unicode hex="018F"/>
  <outline>
    <contour>
      <point x="283" y="720" type="curve" smooth="yes"/>
      <point x="165" y="720"/>
      <point x="89" y="648"/>
      <point x="44" y="558" type="curve"/>
      <point x="92" y="522" type="line"/>
      <point x="125" y="591"/>
      <point x="183" y="666"/>
      <point x="278" y="666" type="curve" smooth="yes"/>
      <point x="386" y="666"/>
      <point x="456" y="555"/>
      <point x="456" y="357" type="curve" smooth="yes"/>
      <point x="456" y="164"/>
      <point x="382" y="44"/>
      <point x="289" y="44" type="curve" smooth="yes"/>
      <point x="184" y="44"/>
      <point x="135" y="140"/>
      <point x="133" y="341" type="curve"/>
      <point x="110" y="321" type="line"/>
      <point x="508" y="321" type="line"/>
      <point x="507" y="375" type="line"/>
      <point x="37" y="375" type="line"/>
      <point x="38" y="119"/>
      <point x="126" y="-10"/>
      <point x="289" y="-10" type="curve" smooth="yes"/>
      <point x="436" y="-10"/>
      <point x="551" y="141"/>
      <point x="551" y="358" type="curve" smooth="yes"/>
      <point x="551" y="580"/>
      <point x="441" y="720"/>
    </contour>
  </outline>
</glyph>
<glyph name="uhorn" format="2">
  <advance width="523"/>
  <unicode hex="01B0"/>
  <anchor x="234" y="508" name="top"/>
  <outline>
    <contour>
      <point x="373" y="472" type="line"/>
      <point x="486" y="476"/>
      <point x="539" y="529"/>
      <point x="539" y="681" type="curve"/>
      <point x="466" y="681" type="line"/>
      <point x="466" y="544"/>
      <point x="446" y="508"/>
      <point x="345" y="508" type="curve" smooth="yes"/>
      <point x="274" y="508" type="line"/>
      <point x="274" y="464" type="line"/>
      <point x="291" y="463" type="line"/>
      <point x="331" y="459"/>
      <point x="350" y="448"/>
      <point x="350" y="419" type="curve" smooth="yes"/>
      <point x="350" y="115" type="line"/>
      <point x="358" y="106" type="line"/>
      <point x="358" y="0" type="line"/>
      <point x="503" y="0" type="line"/>
      <point x="503" y="41" type="line"/>
      <point x="501" y="41" type="line" smooth="yes"/>
      <point x="463" y="41"/>
      <point x="437" y="48"/>
      <point x="437" y="77" type="curve" smooth="yes"/>
      <point x="437" y="496" type="line"/>
    </contour>
    <contour>
      <point x="169" y="508" type="line"/>
      <point x="16" y="508" type="line"/>
      <point x="16" y="464" type="line"/>
      <point x="25" y="463" type="line" smooth="yes"/>
      <point x="65" y="456"/>
      <point x="82" y="448"/>
      <point x="82" y="419" type="curve" smooth="yes"/>
      <point x="82" y="151" type="line" smooth="yes"/>
      <point x="82" y="40"/>
      <point x="137" y="-10"/>
      <point x="215" y="-10" type="curve" smooth="yes"/>
      <point x="295" y="-10"/>
      <point x="344" y="46"/>
      <point x="398" y="160" type="curve"/>
      <point x="374" y="187" type="line"/>
      <point x="336" y="96"/>
      <point x="290" y="47"/>
      <point x="235" y="47" type="curve" smooth="yes"/>
      <point x="185" y="47"/>
      <point x="169" y="83"/>
      <point x="169" y="163" type="curve"/>
    </contour>
  </outline>
</glyph>
<glyph name="pi" format="2">
  <advance width="621"/>
  <unicode hex="03C0"/>
  <outline>
    <contour>
      <point x="262" y="0" type="line"/>
      <point x="262" y="480" type="line"/>
      <point x="205" y="480" type="line"/>
      <point x="196" y="211"/>
      <point x="177" y="185"/>
      <point x="177" y="0" type="curve"/>
    </contour>
    <contour>
      <point x="570" y="438" type="line"/>
      <point x="570" y="508" type="line"/>
      <point x="215" y="508" type="line" smooth="yes"/>
      <point x="114" y="508"/>
      <point x="54" y="442"/>
      <point x="31" y="342" type="curve"/>
      <point x="85" y="314" type="line"/>
      <point x="104" y="392"/>
      <point x="135" y="438"/>
      <point x="199" y="438" type="curve" smooth="yes"/>
    </contour>
    <contour>
      <point x="466" y="102" type="curve" smooth="yes"/>
      <point x="466" y="480" type="line"/>
      <point x="405" y="480" type="line"/>
      <point x="396" y="237"/>
      <point x="381" y="167"/>
      <point x="381" y="103" type="curve" smooth="yes"/>
      <point x="381" y="24"/>
      <point x="422" y="-9"/>
      <point x="482" y="-9" type="curve" smooth="yes"/>
      <point x="538" y="-9"/>
      <point x="571" y="33"/>
      <point x="589" y="82" type="curve"/>
      <point x="552" y="108" type="line"/>
      <point x="539" y="80"/>
      <point x="521" y="49"/>
      <point x="498" y="49" type="curve" smooth="yes"/>
      <point x="477" y="49"/>
      <point x="466" y="62"/>
    </contour>
  </outline>
</glyph>
<glyph name="peseta" format="2">
  <advance width="462"/>
  <unicode hex="20A7"/>
  <outline>
    <contour>
      <point x="3" y="0" type="line"/>
      <point x="160" y="0" type="line"/>
      <point x="160" y="44" type="line"/>
      <point x="152" y="44" type="line" smooth="yes"/>
      <point x="137" y="44"/>
      <point x="113" y="47"/>
      <point x="113" y="54" type="curve" smooth="yes"/>
      <point x="113" y="260" type="line"/>
      <point x="125" y="260" type="line" smooth="yes"/>
      <point x="231" y="260"/>
      <point x="286" y="354"/>
      <point x="286" y="488" type="curve" smooth="yes"/>
      <point x="286" y="623"/>
      <point x="234" y="710"/>
      <point x="128" y="710" type="curve" smooth="yes"/>
      <point x="3" y="710" type="line"/>
      <point x="3" y="666" type="line"/>
      <point x="7" y="666" type="line" smooth="yes"/>
      <point x="24" y="666"/>
      <point x="36" y="659"/>
      <point x="36" y="630" type="curve" smooth="yes"/>
      <point x="36" y="80" type="line" smooth="yes"/>
      <point x="36" y="51"/>
      <point x="24" y="44"/>
      <point x="7" y="44" type="curve" smooth="yes"/>
      <point x="3" y="44" type="line"/>
    </contour>
    <contour>
      <point x="131" y="658" type="line" smooth="yes"/>
      <point x="187" y="658"/>
      <point x="208" y="595"/>
      <point x="208" y="487" type="curve" smooth="yes"/>
      <point x="208" y="381"/>
      <point x="187" y="310"/>
      <point x="128" y="310" type="curve" smooth="yes"/>
      <point x="113" y="310" type="line"/>
      <point x="113" y="658" type="line"/>
    </contour>
    <contour>
      <point x="363" y="508" type="line"/>
      <point x="320" y="492" type="line"/>
      <point x="320" y="109" type="line" smooth="yes"/>
      <point x="320" y="22"/>
      <point x="357" y="-11"/>
      <point x="417" y="-11" type="curve" smooth="yes"/>
      <point x="438" y="-11"/>
      <point x="452" y="-7"/>
      <point x="459" y="-4" type="curve"/>
      <point x="459" y="51" type="line"/>
      <point x="452" y="47"/>
      <point x="443" y="44"/>
      <point x="432" y="44" type="curve" smooth="yes"/>
      <point x="407" y="44"/>
      <point x="395" y="63"/>
      <point x="395" y="109" type="curve" smooth="yes"/>
      <point x="395" y="648" type="line"/>
      <point x="335" y="648" type="line"/>
      <point x="335" y="571" type="line"/>
      <point x="335" y="514"/>
      <point x="319" y="503"/>
      <point x="289" y="503" type="curve" smooth="yes"/>
      <point x="264" y="503" type="line"/>
      <point x="264" y="456" type="line"/>
      <point x="460" y="456" type="line"/>
      <point x="460" y="508" type="line"/>
    </contour>
  </outline>
</glyph>
<glyph name="guarani" format="2">
  <advance width="462"/>
  <unicode hex="20B2"/>
  <outline>
    <contour>
      <point x="213" y="790" type="line"/>
      <point x="213" y="672" type="line"/>
      <point x="214" y="663" type="line"/>
      <point x="214" y="46" type="line"/>
      <point x="213" y="36" type="line"/>
      <point x="213" y="-120" type="line"/>
      <point x="266" y="-120" type="line"/>
      <point x="266" y="36" type="line"/>
      <point x="265" y="45" type="line"/>
      <point x="265" y="660" type="line"/>
      <point x="266" y="676" type="line"/>
      <point x="266" y="790" type="line"/>
    </contour>
    <contour>
      <point x="250" y="10" type="curve"/>
      <point x="322" y="10"/>
      <point x="389" y="56"/>
      <point x="417" y="103" type="curve"/>
      <point x="417" y="277" type="line"/>
      <point x="417" y="306"/>
      <point x="434" y="313"/>
      <point x="456" y="313" type="curve" smooth="yes"/>
      <point x="459" y="313" type="line"/>
      <point x="459" y="357" type="line"/>
      <point x="310" y="357" type="line"/>
      <point x="310" y="313" type="line"/>
      <point x="313" y="313" type="line" smooth="yes"/>
      <point x="328" y="313"/>
      <point x="340" y="306"/>
      <point x="340" y="277" type="curve"/>
      <point x="340" y="108" type="line"/>
      <point x="327" y="90"/>
      <point x="298" y="62"/>
      <point x="252" y="62" type="curve"/>
      <point x="155" y="62"/>
      <point x="106" y="173"/>
      <point x="106" y="355" type="curve" smooth="yes"/>
      <point x="106" y="534"/>
      <point x="147" y="648"/>
      <point x="262" y="648" type="curve"/>
      <point x="307" y="648"/>
      <point x="353" y="619"/>
      <point x="379" y="559" type="curve"/>
      <point x="387" y="588"/>
      <point x="361" y="621"/>
      <point x="338" y="624" type="curve"/>
      <point x="338" y="521" type="line"/>
      <point x="420" y="521" type="line"/>
      <point x="420" y="612" type="line"/>
      <point x="392" y="667"/>
      <point x="325" y="700"/>
      <point x="258" y="700" type="curve"/>
      <point x="106" y="700"/>
      <point x="16" y="560"/>
      <point x="16" y="355" type="curve" smooth="yes"/>
      <point x="16" y="149"/>
      <point x="105" y="10"/>
    </contour>
  </outline>
</glyph>
<glyph name="servicemark" format="2">
  <advance width="718"/>
  <unicode hex="2120"/>
  <outline>
    <contour>
      <point x="317" y="395" type="line"/>
      <point x="415" y="395" type="line"/>
      <point x="415" y="428" type="line"/>
      <point x="414" y="428" type="line" smooth="yes"/>
      <point x="406" y="428"/>
      <point x="389" y="431"/>
      <point x="389" y="433" type="curve" smooth="yes"/>
      <point x="389" y="702" type="line"/>
      <point x="384" y="701" type="line"/>
      <point x="462" y="394" type="line"/>
      <point x="506" y="394" type="line"/>
      <point x="586" y="701" type="line"/>
      <point x="580" y="701" type="line"/>
      <point x="580" y="433" type="line" smooth="yes"/>
      <point x="580" y="431"/>
      <point x="566" y="428"/>
      <point x="556" y="428" type="curve" smooth="yes"/>
      <point x="554" y="428" type="line"/>
      <point x="554" y="395" type="line"/>
      <point x="670" y="395" type="line"/>
      <point x="670" y="428" type="line"/>
      <point x="665" y="428" type="line" smooth="yes"/>
      <point x="648" y="428"/>
      <point x="636" y="432"/>
      <point x="636" y="445" type="curve" smooth="yes"/>
      <point x="636" y="661" type="line" smooth="yes"/>
      <point x="636" y="675"/>
      <point x="648" y="677"/>
      <point x="665" y="677" type="curve" smooth="yes"/>
      <point x="670" y="677" type="line"/>
      <point x="670" y="710" type="line"/>
      <point x="552" y="710" type="line"/>
      <point x="483" y="435" type="line"/>
      <point x="500" y="434" type="line"/>
      <point x="438" y="710" type="line"/>
      <point x="317" y="710" type="line"/>
      <point x="317" y="677" type="line"/>
      <point x="322" y="677" type="line" smooth="yes"/>
      <point x="338" y="677"/>
      <point x="351" y="675"/>
      <point x="351" y="661" type="curve" smooth="yes"/>
      <point x="351" y="445" type="line" smooth="yes"/>
      <point x="351" y="432"/>
      <point x="338" y="428"/>
      <point x="322" y="428" type="curve"/>
      <point x="317" y="428" type="line"/>
    </contour>
    <contour>
      <point x="185" y="424" type="curve" smooth="yes"/>
      <point x="143" y="424"/>
      <point x="113" y="457"/>
      <point x="101" y="498" type="curve"/>
      <point x="63" y="498" type="line"/>
      <point x="63" y="391" type="line"/>
      <point x="96" y="391" type="line"/>
      <point x="102" y="473" type="line"/>
      <point x="96" y="478"/>
      <point x="86" y="463"/>
      <point x="81" y="479" type="curve"/>
      <point x="97" y="415"/>
      <point x="136" y="386"/>
      <point x="188" y="386" type="curve" smooth="yes"/>
      <point x="240" y="386"/>
      <point x="281" y="419"/>
      <point x="281" y="486" type="curve" smooth="yes"/>
      <point x="281" y="539"/>
      <point x="250" y="566"/>
      <point x="191" y="583" type="curve" smooth="yes"/>
      <point x="155" y="596"/>
      <point x="121" y="604"/>
      <point x="121" y="641" type="curve" smooth="yes"/>
      <point x="121" y="667"/>
      <point x="137" y="683"/>
      <point x="165" y="683" type="curve" smooth="yes"/>
      <point x="195" y="683"/>
      <point x="218" y="660"/>
      <point x="229" y="625" type="curve"/>
      <point x="265" y="625" type="line"/>
      <point x="265" y="716" type="line"/>
      <point x="235" y="716" type="line"/>
      <point x="228" y="645" type="line"/>
      <point x="236" y="638"/>
      <point x="241" y="644"/>
      <point x="247" y="645" type="curve"/>
      <point x="230" y="702"/>
      <point x="197" y="720"/>
      <point x="159" y="720" type="curve" smooth="yes"/>
      <point x="111" y="720"/>
      <point x="73" y="688"/>
      <point x="73" y="634" type="curve" smooth="yes"/>
      <point x="73" y="569"/>
      <point x="119" y="549"/>
      <point x="164" y="535" type="curve" smooth="yes"/>
      <point x="214" y="518"/>
      <point x="232" y="505"/>
      <point x="232" y="472" type="curve" smooth="yes"/>
      <point x="232" y="441"/>
      <point x="216" y="424"/>
    </contour>
  </outline>
</glyph>
<glyph name="emptyset" format="2">
  <advance width="575"/>
  <unicode hex="2205"/>
  <outline>
    <contour>
      <point x="65" y="-45" type="line"/>
      <point x="543" y="550" type="line"/>
      <point x="511" y="585" type="line"/>
      <point x="32" y="-10" type="line"/>
    </contour>
    <contour>
      <point x="288" y="-9" type="curve" smooth="yes"/>
      <point x="416" y="-9"/>
      <point x="520" y="110"/>
      <point x="520" y="270" type="curve" smooth="yes"/>
      <point x="520" y="430"/>
      <point x="416" y="549"/>
      <point x="288" y="549" type="curve" smooth="yes"/>
      <point x="160" y="549"/>
      <point x="55" y="430"/>
      <point x="55" y="270" type="curve" smooth="yes"/>
      <point x="55" y="110"/>
      <point x="160" y="-9"/>
    </contour>
    <contour>
      <point x="288" y="43" type="curve" smooth="yes"/>
      <point x="185" y="43"/>
      <point x="105" y="136"/>
      <point x="105" y="270" type="curve" smooth="yes"/>
      <point x="105" y="403"/>
      <point x="187" y="498"/>
      <point x="288" y="498" type="curve" smooth="yes"/>
      <point x="391" y="498"/>
      <point x="470" y="405"/>
      <point x="470" y="270" type="curve" smooth="yes"/>
      <point x="470" y="138"/>
      <point x="389" y="43"/>
    </contour>
  </outline>
</glyph>
<glyph name="seven.den" format="2">
  <advance width="270"/>
  <unicode hex="E409"/>
  <outline>
    <contour>
      <point x="119" y="290" type="line" smooth="yes"/>
      <point x="84" y="290"/>
      <point x="69" y="286"/>
      <point x="68" y="266" type="curve" smooth="yes"/>
      <point x="64" y="219" type="line"/>
      <point x="34" y="219" type="line"/>
      <point x="34" y="341" type="line"/>
      <point x="253" y="341" type="line"/>
      <point x="253" y="292" type="line"/>
      <point x="197" y="207"/>
      <point x="163" y="135"/>
      <point x="158" y="0" type="curve"/>
      <point x="90" y="0" type="line"/>
      <point x="99" y="132"/>
      <point x="187" y="264"/>
      <point x="224" y="302" type="curve"/>
      <point x="232" y="290" type="line"/>
    </contour>
  </outline>
</glyph>
<glyph name="breve_hook" format="2">
  <advance width="420"/>
  <anchor x="206" y="525" name="_top"/>
  <outline>
    <contour>
      <point x="127" y="830" type="line"/>
      <point x="129" y="868"/>
      <point x="156" y="901"/>
      <point x="210" y="901" type="curve" smooth="yes"/>
      <point x="264" y="901"/>
      <point x="294" y="876"/>
      <point x="294" y="833" type="curve" smooth="yes"/>
      <point x="294" y="782"/>
      <point x="252" y="763"/>
      <point x="204" y="758" type="curve"/>
      <point x="226" y="782" type="line"/>
      <point x="226" y="731" type="line"/>
      <point x="182" y="731" type="line"/>
      <point x="182" y="788" type="line"/>
      <point x="220" y="791"/>
      <point x="236" y="804"/>
      <point x="236" y="831" type="curve" smooth="yes"/>
      <point x="236" y="852"/>
      <point x="227" y="864"/>
      <point x="208" y="864" type="curve" smooth="yes"/>
      <point x="190" y="864"/>
      <point x="181" y="849"/>
      <point x="178" y="830" type="curve"/>
    </contour>
    <contour>
      <point x="206" y="582" type="curve" smooth="yes"/>
      <point x="140" y="582"/>
      <point x="93" y="631"/>
      <point x="89" y="736" type="curve"/>
      <point x="142" y="736" type="line"/>
      <point x="148" y="667"/>
      <point x="171" y="646"/>
      <point x="209" y="646" type="curve" smooth="yes"/>
      <point x="246" y="646"/>
      <point x="268" y="667"/>
      <point x="274" y="736" type="curve"/>
      <point x="323" y="736" type="line"/>
      <point x="320" y="631"/>
      <point x="272" y="582"/>
    </contour>
  </outline>
</glyph>
<glyph name="breve_hook.uc" format="2">
  <advance width="420"/>
  <anchor x="206" y="724" name="_top"/>
  <outline>
    <contour>
      <point x="129" y="984" type="line"/>
      <point x="132" y="1023"/>
      <point x="159" y="1056"/>
      <point x="212" y="1056" type="curve" smooth="yes"/>
      <point x="266" y="1056"/>
      <point x="297" y="1029"/>
      <point x="297" y="987" type="curve" smooth="yes"/>
      <point x="297" y="935"/>
      <point x="254" y="915"/>
      <point x="207" y="912" type="curve"/>
      <point x="229" y="935" type="line"/>
      <point x="229" y="884" type="line"/>
      <point x="185" y="884" type="line"/>
      <point x="185" y="942" type="line"/>
      <point x="223" y="944"/>
      <point x="238" y="957"/>
      <point x="238" y="985" type="curve" smooth="yes"/>
      <point x="238" y="1005"/>
      <point x="229" y="1018"/>
      <point x="211" y="1018" type="curve" smooth="yes"/>
      <point x="192" y="1018"/>
      <point x="183" y="1003"/>
      <point x="181" y="984" type="curve"/>
    </contour>
    <contour>
      <point x="206" y="759" type="curve" smooth="yes"/>
      <point x="136" y="759"/>
      <point x="90" y="800"/>
      <point x="84" y="883" type="curve"/>
      <point x="140" y="883" type="line"/>
      <point x="146" y="835"/>
      <point x="168" y="820"/>
      <point x="209" y="820" type="curve" smooth="yes"/>
      <point x="249" y="820"/>
      <point x="270" y="835"/>
      <point x="276" y="883" type="curve"/>
      <point x="327" y="883" type="line"/>
      <point x="321" y="800"/>
      <point x="276" y="759"/>
    </contour>
  </outline>
</glyph>
<glyph name="dollar.proportional" format="2">
  <advance width="485"/>
  <outline>
    <contour>
      <point x="217" y="789" type="line"/>
      <point x="217" y="672" type="line"/>
      <point x="218" y="662" type="line"/>
      <point x="218" y="42" type="line"/>
      <point x="217" y="35" type="line"/>
      <point x="217" y="-120" type="line"/>
      <point x="270" y="-120" type="line"/>
      <point x="270" y="32" type="line"/>
      <point x="269" y="44" type="line"/>
      <point x="269" y="665" type="line"/>
      <point x="270" y="673" type="line"/>
      <point x="270" y="789" type="line"/>
    </contour>
    <contour>
      <point x="244" y="63" type="curve" smooth="yes"/>
      <point x="174" y="63"/>
      <point x="113" y="93"/>
      <point x="83" y="151" type="curve"/>
      <point x="75" y="134"/>
      <point x="93" y="100"/>
      <point x="118" y="93" type="curve"/>
      <point x="118" y="212" type="line"/>
      <point x="36" y="212" type="line"/>
      <point x="36" y="99" type="line"/>
      <point x="72" y="52"/>
      <point x="149" y="11"/>
      <point x="248" y="11" type="curve" smooth="yes"/>
      <point x="363" y="11"/>
      <point x="446" y="76"/>
      <point x="446" y="205" type="curve" smooth="yes"/>
      <point x="446" y="327"/>
      <point x="357" y="371"/>
      <point x="267" y="397" type="curve" smooth="yes"/>
      <point x="193" y="421"/>
      <point x="127" y="441"/>
      <point x="127" y="530" type="curve" smooth="yes"/>
      <point x="127" y="606"/>
      <point x="169" y="647"/>
      <point x="257" y="647" type="curve" smooth="yes"/>
      <point x="321" y="647"/>
      <point x="364" y="610"/>
      <point x="388" y="578" type="curve"/>
      <point x="393" y="594"/>
      <point x="374" y="626"/>
      <point x="351" y="629" type="curve"/>
      <point x="351" y="528" type="line"/>
      <point x="430" y="528" type="line"/>
      <point x="430" y="629" type="line"/>
      <point x="404" y="656"/>
      <point x="339" y="698"/>
      <point x="253" y="698" type="curve" smooth="yes"/>
      <point x="133" y="698"/>
      <point x="56" y="635"/>
      <point x="56" y="523" type="curve" smooth="yes"/>
      <point x="56" y="395"/>
      <point x="141" y="365"/>
      <point x="227" y="338" type="curve" smooth="yes"/>
      <point x="303" y="313"/>
      <point x="370" y="293"/>
      <point x="370" y="191" type="curve" smooth="yes"/>
      <point x="370" y="98"/>
      <point x="325" y="63"/>
    </contour>
  </outline>
</glyph>
<glyph name="f_j.alt" format="2">
  <advance width="549"/>
  <outline>
    <contour>
      <point x="28" y="508" type="line"/>
      <point x="28" y="457" type="line"/>
      <point x="389" y="457" type="line"/>
      <point x="389" y="508" type="line"/>
    </contour>
    <contour>
      <point x="390" y="-51" type="line" smooth="yes"/>
      <point x="390" y="-150"/>
      <point x="359" y="-180"/>
      <point x="310" y="-180" type="curve" smooth="yes"/>
      <point x="286" y="-180"/>
      <point x="267" y="-174"/>
      <point x="247" y="-166" type="curve"/>
      <point x="247" y="-223" type="line"/>
      <point x="262" y="-231"/>
      <point x="290" y="-236"/>
      <point x="317" y="-236" type="curve" smooth="yes"/>
      <point x="401" y="-236"/>
      <point x="477" y="-196"/>
      <point x="477" y="-51" type="curve" smooth="yes"/>
      <point x="477" y="508" type="line"/>
      <point x="315" y="508" type="line"/>
      <point x="315" y="457" type="line"/>
      <point x="334" y="457" type="line" smooth="yes"/>
      <point x="374" y="457"/>
      <point x="390" y="441"/>
      <point x="390" y="412" type="curve" smooth="yes"/>
    </contour>
    <contour>
      <point x="198" y="51" type="curve" smooth="yes"/>
      <point x="198" y="572" type="line" smooth="yes"/>
      <point x="198" y="665"/>
      <point x="227" y="701"/>
      <point x="309" y="701" type="curve" smooth="yes"/>
      <point x="364" y="701"/>
      <point x="399" y="682"/>
      <point x="419" y="653" type="curve"/>
      <point x="432" y="673"/>
      <point x="411" y="710"/>
      <point x="384" y="714" type="curve"/>
      <point x="384" y="619" type="line"/>
      <point x="462" y="619" type="line"/>
      <point x="462" y="712" type="line"/>
      <point x="447" y="725"/>
      <point x="393" y="752"/>
      <point x="308" y="752" type="curve" smooth="yes"/>
      <point x="187" y="752"/>
      <point x="111" y="691"/>
      <point x="111" y="572" type="curve" smooth="yes"/>
      <point x="111" y="77" type="line"/>
      <point x="111" y="48"/>
      <point x="85" y="41"/>
      <point x="43" y="41" type="curve" smooth="yes"/>
      <point x="33" y="41" type="line"/>
      <point x="33" y="0" type="line"/>
      <point x="273" y="0" type="line"/>
      <point x="273" y="41" type="line"/>
      <point x="263" y="41" type="line" smooth="yes"/>
      <point x="226" y="41"/>
      <point x="198" y="44"/>
    </contour>
  </outline>
</glyph>
<glyph name="four.oldtab" format="2">
  <advance width="462"/>
  <outline>
    <contour>
      <point x="28" y="56" type="line"/>
      <point x="451" y="56" type="line"/>
      <point x="451" y="116" type="line"/>
      <point x="57" y="116" type="line"/>
      <point x="60" y="79" type="line"/>
      <point x="298" y="533" type="line"/>
      <point x="300" y="548" type="line"/>
      <point x="255" y="548" type="line"/>
      <point x="28" y="121" type="line"/>
    </contour>
    <contour>
      <point x="364" y="-136" type="line"/>
      <point x="364" y="548" type="line"/>
      <point x="278" y="548" type="line"/>
      <point x="277" y="520" type="line"/>
      <point x="277" y="-136" type="line"/>
    </contour>
  </outline>
</glyph>
<glyph name="guarani.proportional" format="2">
  <advance width="646"/>
  <outline>
    <contour>
      <point x="294" y="790" type="line"/>
      <point x="294" y="671" type="line"/>
      <point x="295" y="658" type="line"/>
      <point x="295" y="44" type="line"/>
      <point x="294" y="34" type="line"/>
      <point x="294" y="-120" type="line"/>
      <point x="347" y="-120" type="line"/>
      <point x="347" y="31" type="line"/>
      <point x="346" y="39" type="line"/>
      <point x="346" y="672" type="line"/>
      <point x="347" y="677" type="line"/>
      <point x="347" y="790" type="line"/>
    </contour>
    <contour>
      <point x="338" y="10" type="curve" smooth="yes"/>
      <point x="436" y="10"/>
      <point x="528" y="74"/>
      <point x="562" y="130" type="curve"/>
      <point x="562" y="277" type="line"/>
      <point x="562" y="306"/>
      <point x="586" y="313"/>
      <point x="620" y="313" type="curve" smooth="yes"/>
      <point x="623" y="313" type="line"/>
      <point x="623" y="357" type="line"/>
      <point x="414" y="357" type="line"/>
      <point x="414" y="313" type="line"/>
      <point x="419" y="313" type="line" smooth="yes"/>
      <point x="453" y="313"/>
      <point x="478" y="306"/>
      <point x="478" y="277" type="curve"/>
      <point x="478" y="136" type="line"/>
      <point x="460" y="113"/>
      <point x="411" y="62"/>
      <point x="340" y="62" type="curve" smooth="yes"/>
      <point x="211" y="62"/>
      <point x="136" y="173"/>
      <point x="136" y="355" type="curve" smooth="yes"/>
      <point x="136" y="532"/>
      <point x="209" y="648"/>
      <point x="343" y="648" type="curve" smooth="yes"/>
      <point x="418" y="648"/>
      <point x="478" y="609"/>
      <point x="506" y="549" type="curve"/>
      <point x="516" y="572"/>
      <point x="489" y="604"/>
      <point x="465" y="613" type="curve"/>
      <point x="465" y="509" type="line"/>
      <point x="552" y="509" type="line"/>
      <point x="552" y="601" type="line"/>
      <point x="522" y="656"/>
      <point x="438" y="700"/>
      <point x="342" y="700" type="curve" smooth="yes"/>
      <point x="165" y="700"/>
      <point x="44" y="558"/>
      <point x="44" y="355" type="curve" smooth="yes"/>
      <point x="44" y="149"/>
      <point x="161" y="10"/>
    </contour>
  </outline>
</glyph>
<glyph name="hungarumlaut.uc" format="2">
  <advance width="412"/>
  <anchor x="216" y="694" name="_top"/>
  <outline>
    <contour>
      <point x="143" y="855" type="curve" smooth="yes"/>
      <point x="128" y="780" type="line"/>
      <point x="128" y="758" type="line"/>
      <point x="158" y="758" type="line"/>
      <point x="194" y="810" type="line" smooth="yes"/>
      <point x="218" y="834"/>
      <point x="231" y="851"/>
      <point x="231" y="874" type="curve" smooth="yes"/>
      <point x="231" y="897"/>
      <point x="215" y="912"/>
      <point x="192" y="912" type="curve" smooth="yes"/>
      <point x="168" y="912"/>
      <point x="153" y="898"/>
    </contour>
    <contour>
      <point x="282" y="855" type="curve" smooth="yes"/>
      <point x="267" y="780" type="line"/>
      <point x="267" y="758" type="line"/>
      <point x="296" y="758" type="line"/>
      <point x="332" y="810" type="line" smooth="yes"/>
      <point x="356" y="834"/>
      <point x="370" y="851"/>
      <point x="370" y="874" type="curve" smooth="yes"/>
      <point x="370" y="897"/>
      <point x="353" y="912"/>
      <point x="331" y="912" type="curve" smooth="yes"/>
      <point x="306" y="912"/>
      <point x="292" y="898"/>
    </contour>
  </outline>
</glyph>
<glyph name="liraTurkish" format="2">
  <advance width="462"/>
  <outline>
    <contour>
      <point x="25" y="406" type="line"/>
      <point x="25" y="358" type="line"/>
      <point x="344" y="533" type="line"/>
      <point x="344" y="581" type="line"/>
    </contour>
    <contour>
      <point x="25" y="241" type="line"/>
      <point x="25" y="193" type="line"/>
      <point x="344" y="368" type="line"/>
      <point x="344" y="416" type="line"/>
    </contour>
    <contour>
      <point x="222" y="52" type="curve" smooth="yes"/>
      <point x="187" y="52" type="line"/>
      <point x="187" y="630" type="line" smooth="yes"/>
      <point x="187" y="659"/>
      <point x="215" y="666"/>
      <point x="253" y="666" type="curve" smooth="yes"/>
      <point x="263" y="666" type="line"/>
      <point x="263" y="710" type="line"/>
      <point x="25" y="710" type="line"/>
      <point x="25" y="666" type="line"/>
      <point x="33" y="666" type="line" smooth="yes"/>
      <point x="71" y="666"/>
      <point x="99" y="659"/>
      <point x="99" y="630" type="curve" smooth="yes"/>
      <point x="99" y="80" type="line" smooth="yes"/>
      <point x="99" y="51"/>
      <point x="71" y="44"/>
      <point x="33" y="44" type="curve" smooth="yes"/>
      <point x="25" y="44" type="line"/>
      <point x="25" y="0" type="line"/>
      <point x="206" y="0" type="line" smooth="yes"/>
      <point x="353" y="0"/>
      <point x="429" y="97"/>
      <point x="438" y="275" type="curve"/>
      <point x="372" y="295" type="line"/>
      <point x="369" y="137"/>
      <point x="319" y="52"/>
    </contour>
  </outline>
</glyph>
<glyph name="one.linprop" format="2">
  <advance width="423"/>
  <outline>
    <contour>
      <point x="274" y="79" type="curve" smooth="yes"/>
      <point x="274" y="710" type="line"/>
      <point x="210" y="710" type="line"/>
      <point x="181" y="659"/>
      <point x="125" y="636"/>
      <point x="48" y="634" type="curve"/>
      <point x="48" y="580" type="line"/>
      <point x="118" y="578"/>
      <point x="186" y="608"/>
      <point x="202" y="654" type="curve"/>
      <point x="188" y="645" type="line"/>
      <point x="188" y="79" type="line" smooth="yes"/>
      <point x="188" y="50"/>
      <point x="154" y="43"/>
      <point x="101" y="43" type="curve" smooth="yes"/>
      <point x="62" y="43" type="line"/>
      <point x="62" y="0" type="line"/>
      <point x="398" y="0" type="line"/>
      <point x="398" y="43" type="line"/>
      <point x="368" y="43" type="line" smooth="yes"/>
      <point x="310" y="43"/>
      <point x="274" y="50"/>
    </contour>
  </outline>
</glyph>
<glyph name="plus.sub" format="2">
  <advance width="331"/>
  <outline>
    <contour>
      <point x="140" y="233" type="line"/>
      <point x="140" y="-73" type="line"/>
      <point x="189" y="-73" type="line"/>
      <point x="189" y="233" type="line"/>
    </contour>
    <contour>
      <point x="289" y="102" type="line"/>
      <point x="42" y="102" type="line"/>
      <point x="42" y="58" type="line"/>
      <point x="289" y="58" type="line"/>
    </contour>
  </outline>
</glyph>
<glyph name="seven.midprop" format="2">
  <advance width="458"/>
  <outline>
    <contour>
      <point x="204" y="540" type="line" smooth="yes"/>
      <point x="135" y="540"/>
      <point x="107" y="533"/>
      <point x="104" y="497" type="curve" smooth="yes"/>
      <point x="96" y="407" type="line"/>
      <point x="50" y="407" type="line"/>
      <point x="50" y="609" type="line"/>
      <point x="432" y="609" type="line"/>
      <point x="432" y="541" type="line"/>
      <point x="336" y="372"/>
      <point x="260" y="240"/>
      <point x="242" y="-77" type="curve"/>
      <point x="151" y="-77" type="line"/>
      <point x="173" y="237"/>
      <point x="336" y="473"/>
      <point x="385" y="554" type="curve"/>
      <point x="395" y="540" type="line"/>
    </contour>
  </outline>
</glyph>
<glyph name="six.linprop" format="2">
  <advance width="482"/>
  <outline>
    <contour>
      <point x="388" y="686" type="line"/>
      <point x="231" y="652"/>
      <point x="126" y="498"/>
      <point x="126" y="293" type="curve" smooth="yes"/>
      <point x="126" y="119"/>
      <point x="178" y="44"/>
      <point x="253" y="44" type="curve" smooth="yes"/>
      <point x="321" y="44"/>
      <point x="362" y="121"/>
      <point x="362" y="230" type="curve" smooth="yes"/>
      <point x="362" y="332"/>
      <point x="331" y="400"/>
      <point x="265" y="400" type="curve" smooth="yes"/>
      <point x="195" y="400"/>
      <point x="144" y="333"/>
      <point x="113" y="248" type="curve"/>
      <point x="104" y="294" type="line"/>
      <point x="127" y="373"/>
      <point x="191" y="454"/>
      <point x="278" y="454" type="curve" smooth="yes"/>
      <point x="377" y="454"/>
      <point x="452" y="368"/>
      <point x="452" y="230" type="curve" smooth="yes"/>
      <point x="452" y="93"/>
      <point x="368" y="-10"/>
      <point x="254" y="-10" type="curve" smooth="yes"/>
      <point x="131" y="-10"/>
      <point x="37" y="94"/>
      <point x="37" y="293" type="curve" smooth="yes"/>
      <point x="37" y="512"/>
      <point x="176" y="702"/>
      <point x="380" y="740" type="curve"/>
    </contour>
  </outline>
</glyph>
<glyph name="three.oldprop" format="2">
  <advance width="461"/>
  <outline>
    <contour>
      <point x="216" y="-96" type="curve" smooth="yes"/>
      <point x="286" y="-96"/>
      <point x="335" y="-42"/>
      <point x="335" y="52" type="curve" smooth="yes"/>
      <point x="335" y="141"/>
      <point x="300" y="198"/>
      <point x="208" y="198" type="curve" smooth="yes"/>
      <point x="149" y="198" type="line"/>
      <point x="149" y="249" type="line"/>
      <point x="197" y="249" type="line" smooth="yes"/>
      <point x="271" y="249"/>
      <point x="314" y="293"/>
      <point x="314" y="383" type="curve" smooth="yes"/>
      <point x="314" y="469"/>
      <point x="273" y="505"/>
      <point x="222" y="505" type="curve" smooth="yes"/>
      <point x="167" y="505"/>
      <point x="132" y="470"/>
      <point x="109" y="428" type="curve"/>
      <point x="111" y="460"/>
      <point x="122" y="483"/>
      <point x="143" y="486" type="curve"/>
      <point x="143" y="381" type="line"/>
      <point x="63" y="381" type="line"/>
      <point x="63" y="473" type="line"/>
      <point x="87" y="511"/>
      <point x="148" y="558"/>
      <point x="227" y="558" type="curve" smooth="yes"/>
      <point x="327" y="558"/>
      <point x="399" y="493"/>
      <point x="399" y="395" type="curve" smooth="yes"/>
      <point x="399" y="288"/>
      <point x="316" y="221"/>
      <point x="205" y="221" type="curve"/>
      <point x="236" y="239" type="line"/>
      <point x="236" y="214" type="line"/>
      <point x="220" y="231" type="line"/>
      <point x="370" y="231"/>
      <point x="423" y="152"/>
      <point x="423" y="52" type="curve" smooth="yes"/>
      <point x="423" y="-66"/>
      <point x="336" y="-150"/>
      <point x="221" y="-150" type="curve" smooth="yes"/>
      <point x="110" y="-150"/>
      <point x="45" y="-80"/>
      <point x="15" y="13" type="curve"/>
      <point x="63" y="46" type="line"/>
      <point x="87" y="-23"/>
      <point x="131" y="-96"/>
    </contour>
  </outline>
</glyph>
<glyph name="zero.oldtab" format="2">
  <advance width="462"/>
  <outline>
    <contour>
      <point x="437" y="273" type="curve" smooth="yes"/>
      <point x="437" y="442"/>
      <point x="352" y="558"/>
      <point x="231" y="558" type="curve" smooth="yes"/>
      <point x="110" y="558"/>
      <point x="24" y="442"/>
      <point x="24" y="273" type="curve" smooth="yes"/>
      <point x="24" y="104"/>
      <point x="110" y="-12"/>
      <point x="231" y="-12" type="curve" smooth="yes"/>
      <point x="352" y="-12"/>
      <point x="437" y="104"/>
    </contour>
    <contour>
      <point x="114" y="273" type="curve" smooth="yes"/>
      <point x="114" y="414"/>
      <point x="157" y="506"/>
      <point x="231" y="506" type="curve" smooth="yes"/>
      <point x="304" y="506"/>
      <point x="348" y="414"/>
      <point x="348" y="273" type="curve" smooth="yes"/>
      <point x="348" y="131"/>
      <point x="304" y="41"/>
      <point x="231" y="41" type="curve" smooth="yes"/>
      <point x="157" y="41"/>
      <point x="114" y="132"/>
    </contour>
  </outline>
</glyph>
<glyph name="zero.propslash" format="2">
  <advance width="515"/>
  <outline>
    <contour>
      <point x="135" y="128" type="line"/>
      <point x="402" y="434" type="line"/>
      <point x="386" y="483" type="line"/>
      <point x="115" y="174" type="line"/>
    </contour>
    <contour>
      <point x="257" y="-11" type="curve" smooth="yes"/>
      <point x="393" y="-11"/>
      <point x="479" y="117"/>
      <point x="479" y="304" type="curve" smooth="yes"/>
      <point x="479" y="491"/>
      <point x="393" y="619"/>
      <point x="257" y="619" type="curve" smooth="yes"/>
      <point x="122" y="619"/>
      <point x="36" y="491"/>
      <point x="36" y="304" type="curve" smooth="yes"/>
      <point x="36" y="117"/>
      <point x="122" y="-11"/>
    </contour>
    <contour>
      <point x="257" y="41" type="curve" smooth="yes"/>
      <point x="168" y="41"/>
      <point x="126" y="144"/>
      <point x="126" y="304" type="curve" smooth="yes"/>
      <point x="126" y="463"/>
      <point x="168" y="567"/>
      <point x="257" y="567" type="curve" smooth="yes"/>
      <point x="346" y="567"/>
      <point x="389" y="463"/>
      <point x="389" y="304" type="curve" smooth="yes"/>
      <point x="389" y="144"/>
      <point x="346" y="41"/>
    </contour>
  </outline>
</glyph>
<glyph name="zero.slashlin" format="2">
  <advance width="462"/>
  <outline>
    <contour>
      <point x="114" y="180" type="line"/>
      <point x="368" y="481" type="line"/>
      <point x="351" y="530" type="line"/>
      <point x="94" y="226" type="line"/>
    </contour>
    <contour>
      <point x="231" y="-10" type="curve" smooth="yes"/>
      <point x="354" y="-10"/>
      <point x="439" y="137"/>
      <point x="439" y="355" type="curve" smooth="yes"/>
      <point x="439" y="574"/>
      <point x="354" y="720"/>
      <point x="231" y="720" type="curve" smooth="yes"/>
      <point x="108" y="720"/>
      <point x="23" y="574"/>
      <point x="23" y="355" type="curve" smooth="yes"/>
      <point x="23" y="137"/>
      <point x="108" y="-10"/>
    </contour>
    <contour>
      <point x="231" y="44" type="curve" smooth="yes"/>
      <point x="155" y="44"/>
      <point x="112" y="162"/>
      <point x="112" y="355" type="curve" smooth="yes"/>
      <point x="112" y="547"/>
      <point x="155" y="666"/>
      <point x="231" y="666" type="curve" smooth="yes"/>
      <point x="306" y="666"/>
      <point x="349" y="547"/>
      <point x="349" y="355" type="curve" smooth="yes"/>
      <point x="349" y="162"/>
      <point x="306" y="44"/>
    </contour>
  </outline>
</glyph>
<glyph name="zero.slashlinprop" format="2">
  <advance width="527"/>
  <outline>
    <contour>
      <point x="130" y="165" type="line"/>
      <point x="411" y="494" type="line"/>
      <point x="394" y="545" type="line"/>
      <point x="110" y="213" type="line"/>
    </contour>
    <contour>
      <point x="263" y="-10" type="curve" smooth="yes"/>
      <point x="398" y="-10"/>
      <point x="491" y="138"/>
      <point x="491" y="355" type="curve" smooth="yes"/>
      <point x="491" y="573"/>
      <point x="398" y="720"/>
      <point x="263" y="720" type="curve" smooth="yes"/>
      <point x="129" y="720"/>
      <point x="36" y="573"/>
      <point x="36" y="355" type="curve" smooth="yes"/>
      <point x="36" y="138"/>
      <point x="129" y="-10"/>
    </contour>
    <contour>
      <point x="263" y="44" type="curve" smooth="yes"/>
      <point x="175" y="44"/>
      <point x="126" y="163"/>
      <point x="126" y="355" type="curve" smooth="yes"/>
      <point x="126" y="546"/>
      <point x="175" y="666"/>
      <point x="263" y="666" type="curve" smooth="yes"/>
      <point x="351" y="666"/>
      <point x="402" y="546"/>
      <point x="402" y="355" type="curve" smooth="yes"/>
      <point x="402" y="163"/>
      <point x="351" y="44"/>
    </contour>
  </outline>
</glyph>
